<svg xmlns="http://www.w3.org/2000/svg" xmlns:xlink="http://www.w3.org/1999/xlink" width="500" zoomAndPan="magnify" viewBox="0 0 375 374.999991" height="500" preserveAspectRatio="xMidYMid meet" version="1.0"><defs><g/><clipPath id="8b7977b88c"><path d="M 194 117.496094 L 215 117.496094 L 215 154 L 194 154 Z M 194 117.496094 " clip-rule="nonzero"/></clipPath><clipPath id="6724eaee49"><path d="M 207 144 L 232.78125 144 L 232.78125 176 L 207 176 Z M 207 144 " clip-rule="nonzero"/></clipPath><clipPath id="20c91e2ea1"><path d="M 156 142 L 215 142 L 215 222.496094 L 156 222.496094 Z M 156 142 " clip-rule="nonzero"/></clipPath><clipPath id="c68868c96a"><path d="M 142.03125 150 L 174 150 L 174 182 L 142.03125 182 Z M 142.03125 150 " clip-rule="nonzero"/></clipPath></defs><g fill="#496638" fill-opacity="1"><g transform="translate(148.79089, 107.061293)"><g><path d="M 14.875 -4.15625 C 15.582031 -4.207031 16.171875 -4.332031 16.640625 -4.53125 C 17.109375 -4.726562 17.492188 -5.003906 17.796875 -5.359375 C 18.109375 -5.722656 18.359375 -6.171875 18.546875 -6.703125 C 18.734375 -7.234375 18.898438 -7.875 19.046875 -8.625 L 23.34375 -8.625 L 22.296875 0.359375 C 20.328125 0.191406 18.265625 0.0664062 16.109375 -0.015625 C 13.953125 -0.0976562 11.738281 -0.140625 9.46875 -0.140625 C 8.757812 -0.140625 8.070312 -0.132812 7.40625 -0.125 C 6.738281 -0.113281 6.070312 -0.0976562 5.40625 -0.078125 C 4.738281 -0.0546875 4.066406 -0.03125 3.390625 0 C 2.710938 0.0195312 2.015625 0.0546875 1.296875 0.109375 L 1.4375 -3.375 C 1.800781 -3.414062 2.160156 -3.453125 2.515625 -3.484375 C 2.828125 -3.515625 3.15625 -3.539062 3.5 -3.5625 C 3.84375 -3.59375 4.148438 -3.609375 4.421875 -3.609375 C 4.472656 -4.191406 4.519531 -4.878906 4.5625 -5.671875 C 4.601562 -6.472656 4.640625 -7.328125 4.671875 -8.234375 C 4.710938 -9.140625 4.75 -10.066406 4.78125 -11.015625 C 4.820312 -11.972656 4.847656 -12.894531 4.859375 -13.78125 C 4.878906 -14.664062 4.894531 -15.492188 4.90625 -16.265625 C 4.914062 -17.035156 4.921875 -17.679688 4.921875 -18.203125 C 4.921875 -18.867188 4.867188 -19.40625 4.765625 -19.8125 C 4.660156 -20.21875 4.507812 -20.535156 4.3125 -20.765625 C 4.113281 -21.003906 3.867188 -21.171875 3.578125 -21.265625 C 3.285156 -21.367188 2.960938 -21.453125 2.609375 -21.515625 L 1.90625 -21.625 L 2.0625 -25.125 C 2.8125 -25.0625 3.5625 -25.003906 4.3125 -24.953125 C 5.0625 -24.898438 5.832031 -24.851562 6.625 -24.8125 C 7.414062 -24.78125 8.238281 -24.753906 9.09375 -24.734375 C 9.945312 -24.722656 10.851562 -24.71875 11.8125 -24.71875 C 13.613281 -24.71875 15.476562 -24.753906 17.40625 -24.828125 C 19.332031 -24.898438 21.34375 -25 23.4375 -25.125 L 22.890625 -16.65625 L 18.703125 -16.65625 L 18.609375 -17.640625 C 18.546875 -18.097656 18.453125 -18.503906 18.328125 -18.859375 C 18.210938 -19.222656 18.035156 -19.535156 17.796875 -19.796875 C 17.566406 -20.054688 17.269531 -20.265625 16.90625 -20.421875 C 16.550781 -20.578125 16.109375 -20.6875 15.578125 -20.75 L 11.171875 -21.1875 L 10.9375 -14.484375 L 18.0625 -14.765625 L 17.859375 -10.3125 L 10.796875 -10.796875 L 10.578125 -3.90625 Z M 14.875 -4.15625 "/></g></g></g><g fill="#496638" fill-opacity="1"><g transform="translate(172.952113, 107.061293)"><g><path d="M 19.203125 -16.90625 C 19.203125 -17.445312 19.144531 -18.003906 19.03125 -18.578125 C 18.925781 -19.160156 18.710938 -19.6875 18.390625 -20.15625 C 18.078125 -20.632812 17.628906 -21.019531 17.046875 -21.3125 C 16.460938 -21.613281 15.691406 -21.765625 14.734375 -21.765625 C 13.867188 -21.765625 13.023438 -21.578125 12.203125 -21.203125 C 11.390625 -20.828125 10.660156 -20.265625 10.015625 -19.515625 C 9.378906 -18.773438 8.867188 -17.847656 8.484375 -16.734375 C 8.109375 -15.628906 7.921875 -14.335938 7.921875 -12.859375 C 7.921875 -11.171875 8.179688 -9.742188 8.703125 -8.578125 C 9.234375 -7.421875 9.9375 -6.476562 10.8125 -5.75 C 11.6875 -5.019531 12.6875 -4.492188 13.8125 -4.171875 C 14.9375 -3.847656 16.09375 -3.6875 17.28125 -3.6875 C 17.832031 -3.6875 18.378906 -3.707031 18.921875 -3.75 C 19.472656 -3.789062 19.992188 -3.847656 20.484375 -3.921875 C 20.984375 -3.992188 21.441406 -4.070312 21.859375 -4.15625 C 22.285156 -4.25 22.660156 -4.351562 22.984375 -4.46875 L 23.984375 -0.8125 C 23.421875 -0.601562 22.796875 -0.40625 22.109375 -0.21875 C 21.421875 -0.0390625 20.695312 0.117188 19.9375 0.265625 C 19.1875 0.410156 18.40625 0.523438 17.59375 0.609375 C 16.78125 0.691406 15.960938 0.734375 15.140625 0.734375 C 13.066406 0.734375 11.1875 0.457031 9.5 -0.09375 C 7.8125 -0.644531 6.363281 -1.457031 5.15625 -2.53125 C 3.957031 -3.613281 3.03125 -4.945312 2.375 -6.53125 C 1.726562 -8.125 1.40625 -9.960938 1.40625 -12.046875 C 1.40625 -14.210938 1.757812 -16.144531 2.46875 -17.84375 C 3.175781 -19.550781 4.164062 -20.988281 5.4375 -22.15625 C 6.71875 -23.320312 8.253906 -24.210938 10.046875 -24.828125 C 11.835938 -25.453125 13.820312 -25.765625 16 -25.765625 C 16.925781 -25.765625 17.765625 -25.734375 18.515625 -25.671875 C 19.273438 -25.609375 19.972656 -25.53125 20.609375 -25.4375 C 21.242188 -25.34375 21.835938 -25.234375 22.390625 -25.109375 C 22.941406 -24.984375 23.484375 -24.851562 24.015625 -24.71875 L 23.734375 -16.65625 L 19.203125 -16.65625 Z M 19.203125 -16.90625 "/></g></g></g><g fill="#496638" fill-opacity="1"><g transform="translate(197.491128, 107.061293)"><g><path d="M 1.375 -12.375 C 1.375 -14.238281 1.695312 -15.984375 2.34375 -17.609375 C 2.988281 -19.242188 3.910156 -20.660156 5.109375 -21.859375 C 6.316406 -23.066406 7.78125 -24.019531 9.5 -24.71875 C 11.21875 -25.414062 13.132812 -25.765625 15.25 -25.765625 C 17.238281 -25.765625 18.992188 -25.414062 20.515625 -24.71875 C 22.046875 -24.019531 23.328125 -23.085938 24.359375 -21.921875 C 25.398438 -20.753906 26.1875 -19.398438 26.71875 -17.859375 C 27.257812 -16.328125 27.53125 -14.722656 27.53125 -13.046875 C 27.53125 -11.785156 27.375 -10.566406 27.0625 -9.390625 C 26.757812 -8.222656 26.328125 -7.128906 25.765625 -6.109375 C 25.210938 -5.097656 24.539062 -4.164062 23.75 -3.3125 C 22.957031 -2.46875 22.070312 -1.742188 21.09375 -1.140625 C 20.125 -0.546875 19.078125 -0.0859375 17.953125 0.234375 C 16.828125 0.566406 15.644531 0.734375 14.40625 0.734375 C 12.175781 0.734375 10.242188 0.390625 8.609375 -0.296875 C 6.972656 -0.992188 5.617188 -1.9375 4.546875 -3.125 C 3.472656 -4.320312 2.675781 -5.71875 2.15625 -7.3125 C 1.632812 -8.90625 1.375 -10.59375 1.375 -12.375 Z M 14.234375 -21.765625 C 13.160156 -21.765625 12.226562 -21.503906 11.4375 -20.984375 C 10.644531 -20.472656 9.988281 -19.804688 9.46875 -18.984375 C 8.945312 -18.160156 8.554688 -17.242188 8.296875 -16.234375 C 8.046875 -15.222656 7.921875 -14.21875 7.921875 -13.21875 C 7.921875 -11.875 8.070312 -10.597656 8.375 -9.390625 C 8.6875 -8.191406 9.132812 -7.140625 9.71875 -6.234375 C 10.300781 -5.328125 11.003906 -4.609375 11.828125 -4.078125 C 12.648438 -3.546875 13.570312 -3.28125 14.59375 -3.28125 C 15.65625 -3.28125 16.582031 -3.53125 17.375 -4.03125 C 18.164062 -4.539062 18.820312 -5.207031 19.34375 -6.03125 C 19.863281 -6.851562 20.25 -7.773438 20.5 -8.796875 C 20.757812 -9.816406 20.890625 -10.835938 20.890625 -11.859375 C 20.890625 -13.191406 20.734375 -14.457031 20.421875 -15.65625 C 20.117188 -16.851562 19.675781 -17.90625 19.09375 -18.8125 C 18.519531 -19.71875 17.820312 -20.4375 17 -20.96875 C 16.1875 -21.5 15.265625 -21.765625 14.234375 -21.765625 Z M 14.234375 -21.765625 "/></g></g></g><g fill="#496638" fill-opacity="1"><g transform="translate(120.314879, 112.371346)"><g><path d="M -0.875 11 C -1.34375 10.644531 -1.742188 10.398438 -2.078125 10.265625 C -2.421875 10.128906 -2.726562 10.070312 -3 10.09375 C -3.28125 10.125 -3.535156 10.210938 -3.765625 10.359375 C -4.003906 10.503906 -4.234375 10.6875 -4.453125 10.90625 L -4.921875 11.328125 L -7.265625 9.390625 C -6.941406 9.035156 -6.59375 8.648438 -6.21875 8.234375 C -5.90625 7.867188 -5.546875 7.441406 -5.140625 6.953125 C -4.734375 6.460938 -4.304688 5.921875 -3.859375 5.328125 C -3.421875 4.753906 -2.941406 4.109375 -2.421875 3.390625 C -1.898438 2.671875 -1.347656 1.820312 -0.765625 0.84375 L 1.578125 2.78125 C 1.441406 3.019531 1.296875 3.265625 1.140625 3.515625 C 1.015625 3.734375 0.863281 3.972656 0.6875 4.234375 C 0.519531 4.492188 0.347656 4.742188 0.171875 4.984375 C 0.628906 5.398438 1.144531 5.84375 1.71875 6.3125 C 2.289062 6.78125 2.878906 7.269531 3.484375 7.78125 C 4.097656 8.289062 4.71875 8.800781 5.34375 9.3125 C 5.96875 9.820312 6.566406 10.304688 7.140625 10.765625 C 7.710938 11.234375 8.25 11.664062 8.75 12.0625 C 9.257812 12.457031 9.695312 12.796875 10.0625 13.078125 C 10.53125 13.429688 10.929688 13.675781 11.265625 13.8125 C 11.609375 13.945312 11.914062 14.007812 12.1875 14 C 12.457031 13.988281 12.703125 13.90625 12.921875 13.75 C 13.140625 13.601562 13.367188 13.421875 13.609375 13.203125 L 14.046875 12.78125 L 16.40625 14.75 C 15.957031 15.226562 15.519531 15.710938 15.09375 16.203125 C 14.675781 16.691406 14.25 17.195312 13.8125 17.71875 C 13.375 18.25 12.925781 18.796875 12.46875 19.359375 C 12.019531 19.929688 11.546875 20.546875 11.046875 21.203125 C 10.117188 22.421875 9.175781 23.703125 8.21875 25.046875 C 7.269531 26.398438 6.296875 27.84375 5.296875 29.375 L -0.3125 24.5 L 1.890625 21.59375 L 2.625 22.046875 C 2.976562 22.242188 3.316406 22.394531 3.640625 22.5 C 3.960938 22.613281 4.273438 22.660156 4.578125 22.640625 C 4.878906 22.617188 5.175781 22.523438 5.46875 22.359375 C 5.769531 22.191406 6.082031 21.9375 6.40625 21.59375 L 8.84375 19 L 3.84375 14.8125 L 0.21875 20.015625 L -2.78125 17.5 L 1.328125 12.796875 Z M -0.875 11 "/></g></g></g><g fill="#496638" fill-opacity="1"><g transform="translate(103.640551, 136.27211)"><g><path d="M 1.65625 22.984375 C -0.957031 21.972656 -2.757812 20.515625 -3.75 18.609375 C -4.738281 16.703125 -4.820312 14.34375 -4 11.53125 C -3.613281 10.207031 -3.09375 9.066406 -2.4375 8.109375 C -1.789062 7.148438 -1.039062 6.394531 -0.1875 5.84375 C 0.664062 5.300781 1.601562 4.96875 2.625 4.84375 C 3.644531 4.71875 4.722656 4.820312 5.859375 5.15625 C 6.085938 5.21875 6.429688 5.316406 6.890625 5.453125 C 7.347656 5.597656 7.859375 5.765625 8.421875 5.953125 C 8.992188 6.140625 9.585938 6.332031 10.203125 6.53125 C 10.816406 6.738281 11.394531 6.929688 11.9375 7.109375 C 12.488281 7.296875 12.972656 7.457031 13.390625 7.59375 C 13.804688 7.726562 14.101562 7.820312 14.28125 7.875 C 14.84375 8.03125 15.304688 8.113281 15.671875 8.125 C 16.035156 8.132812 16.34375 8.082031 16.59375 7.96875 C 16.851562 7.863281 17.054688 7.703125 17.203125 7.484375 C 17.359375 7.265625 17.507812 7.015625 17.65625 6.734375 L 17.90625 6.15625 L 20.828125 7.140625 C 20.640625 7.566406 20.453125 8.03125 20.265625 8.53125 C 20.109375 8.957031 19.925781 9.46875 19.71875 10.0625 C 19.519531 10.65625 19.316406 11.3125 19.109375 12.03125 C 18.910156 12.71875 18.695312 13.492188 18.46875 14.359375 C 18.238281 15.222656 18.03125 16.207031 17.84375 17.3125 L 14.9375 16.328125 C 14.988281 16.066406 15.039062 15.796875 15.09375 15.515625 C 15.144531 15.265625 15.203125 14.988281 15.265625 14.6875 C 15.328125 14.394531 15.398438 14.101562 15.484375 13.8125 C 12.503906 12.832031 10.191406 12.078125 8.546875 11.546875 C 6.898438 11.015625 5.835938 10.675781 5.359375 10.53125 C 4.472656 10.269531 3.675781 10.160156 2.96875 10.203125 C 2.269531 10.242188 1.660156 10.40625 1.140625 10.6875 C 0.628906 10.96875 0.203125 11.347656 -0.140625 11.828125 C -0.492188 12.304688 -0.765625 12.847656 -0.953125 13.453125 C -1.148438 14.160156 -1.210938 14.816406 -1.140625 15.421875 C -1.078125 16.035156 -0.890625 16.582031 -0.578125 17.0625 C -0.273438 17.550781 0.144531 17.976562 0.6875 18.34375 C 1.226562 18.707031 1.863281 19 2.59375 19.21875 C 3.882812 19.601562 4.96875 19.929688 5.84375 20.203125 C 6.726562 20.472656 7.457031 20.695312 8.03125 20.875 C 8.613281 21.0625 9.0625 21.203125 9.375 21.296875 C 9.695312 21.398438 9.929688 21.472656 10.078125 21.515625 C 10.222656 21.554688 10.3125 21.582031 10.34375 21.59375 C 10.375 21.601562 10.394531 21.609375 10.40625 21.609375 C 10.9375 21.765625 11.378906 21.84375 11.734375 21.84375 C 12.085938 21.84375 12.382812 21.785156 12.625 21.671875 C 12.863281 21.554688 13.054688 21.390625 13.203125 21.171875 C 13.359375 20.960938 13.507812 20.71875 13.65625 20.4375 L 13.90625 19.84375 L 16.828125 20.828125 C 16.679688 21.140625 16.519531 21.523438 16.34375 21.984375 C 16.195312 22.347656 16.03125 22.800781 15.84375 23.34375 C 15.65625 23.894531 15.457031 24.53125 15.25 25.25 C 15.144531 25.59375 15.039062 25.945312 14.9375 26.3125 C 14.84375 26.675781 14.742188 27.066406 14.640625 27.484375 C 14.535156 27.898438 14.429688 28.34375 14.328125 28.8125 C 14.234375 29.289062 14.140625 29.804688 14.046875 30.359375 L 11.125 29.375 C 11.1875 29.101562 11.242188 28.820312 11.296875 28.53125 C 11.335938 28.28125 11.390625 28.003906 11.453125 27.703125 C 11.523438 27.398438 11.601562 27.097656 11.6875 26.796875 Z M 1.65625 22.984375 "/></g></g></g><g fill="#496638" fill-opacity="1"><g transform="translate(96.04915, 169.365862)"><g><path d="M 16.1875 16.75 L 17.03125 16.546875 C 17.425781 16.460938 17.742188 16.347656 17.984375 16.203125 C 18.234375 16.066406 18.421875 15.890625 18.546875 15.671875 C 18.679688 15.460938 18.769531 15.195312 18.8125 14.875 C 18.851562 14.550781 18.878906 14.160156 18.890625 13.703125 L 18.90625 12.171875 C 18.007812 12.191406 17.09375 12.222656 16.15625 12.265625 C 15.226562 12.304688 14.335938 12.347656 13.484375 12.390625 C 12.628906 12.441406 11.820312 12.492188 11.0625 12.546875 C 10.3125 12.597656 9.644531 12.644531 9.0625 12.6875 C 8.476562 12.726562 8 12.765625 7.625 12.796875 C 7.25 12.828125 7.007812 12.84375 6.90625 12.84375 C 6.382812 12.894531 5.96875 12.984375 5.65625 13.109375 C 5.351562 13.234375 5.113281 13.390625 4.9375 13.578125 C 4.769531 13.773438 4.648438 14 4.578125 14.25 C 4.515625 14.507812 4.476562 14.789062 4.46875 15.09375 L 4.421875 15.796875 L 1.375 15.96875 C 1.375 15.488281 1.367188 14.972656 1.359375 14.421875 C 1.347656 13.929688 1.328125 13.367188 1.296875 12.734375 C 1.265625 12.109375 1.210938 11.421875 1.140625 10.671875 C 1.078125 9.941406 0.992188 9.132812 0.890625 8.25 C 0.785156 7.375 0.617188 6.382812 0.390625 5.28125 L 3.4375 5.109375 C 3.488281 5.367188 3.546875 5.644531 3.609375 5.9375 C 3.648438 6.1875 3.695312 6.46875 3.75 6.78125 C 3.8125 7.09375 3.851562 7.398438 3.875 7.703125 C 4.488281 7.679688 5.15625 7.65625 5.875 7.625 C 6.601562 7.601562 7.351562 7.570312 8.125 7.53125 C 8.90625 7.5 9.679688 7.460938 10.453125 7.421875 C 11.234375 7.378906 11.984375 7.332031 12.703125 7.28125 C 13.421875 7.238281 14.09375 7.191406 14.71875 7.140625 C 15.34375 7.097656 15.882812 7.054688 16.34375 7.015625 L 18.984375 6.78125 C 18.984375 6.320312 18.976562 5.957031 18.96875 5.6875 C 18.96875 5.425781 18.96875 5.226562 18.96875 5.09375 C 18.96875 4.96875 18.960938 4.878906 18.953125 4.828125 C 18.953125 4.785156 18.953125 4.753906 18.953125 4.734375 C 18.921875 4.429688 18.835938 4.148438 18.703125 3.890625 C 18.578125 3.640625 18.390625 3.421875 18.140625 3.234375 C 17.890625 3.054688 17.5625 2.910156 17.15625 2.796875 C 16.757812 2.691406 16.257812 2.628906 15.65625 2.609375 L 14.875 2.578125 L 14.59375 -0.484375 L 22 -0.90625 C 22.03125 0.0625 22.070312 1.070312 22.125 2.125 C 22.144531 2.5625 22.171875 3.023438 22.203125 3.515625 C 22.242188 4.015625 22.28125 4.523438 22.3125 5.046875 C 22.34375 5.566406 22.378906 6.085938 22.421875 6.609375 C 22.472656 7.140625 22.519531 7.660156 22.5625 8.171875 C 22.675781 9.410156 22.78125 10.523438 22.875 11.515625 C 22.96875 12.503906 23.066406 13.441406 23.171875 14.328125 C 23.273438 15.210938 23.390625 16.078125 23.515625 16.921875 C 23.640625 17.773438 23.796875 18.664062 23.984375 19.59375 L 16.46875 19.8125 Z M 16.1875 16.75 "/></g></g></g><g fill="#496638" fill-opacity="1"><g transform="translate(100.251348, 199.825355)"><g><path d="M 16.90625 15.640625 C 14.3125 16.703125 12 16.875 9.96875 16.15625 C 7.945312 15.445312 6.273438 13.78125 4.953125 11.15625 C 4.328125 9.925781 3.925781 8.738281 3.75 7.59375 C 3.570312 6.457031 3.609375 5.394531 3.859375 4.40625 C 4.109375 3.425781 4.5625 2.535156 5.21875 1.734375 C 5.882812 0.941406 6.738281 0.28125 7.78125 -0.25 C 8 -0.351562 8.328125 -0.507812 8.765625 -0.71875 C 9.203125 -0.925781 9.691406 -1.15625 10.234375 -1.40625 C 10.773438 -1.65625 11.335938 -1.914062 11.921875 -2.1875 C 12.503906 -2.46875 13.054688 -2.726562 13.578125 -2.96875 C 14.097656 -3.207031 14.554688 -3.421875 14.953125 -3.609375 C 15.347656 -3.796875 15.628906 -3.929688 15.796875 -4.015625 C 16.316406 -4.273438 16.710938 -4.523438 16.984375 -4.765625 C 17.265625 -5.015625 17.457031 -5.265625 17.5625 -5.515625 C 17.675781 -5.773438 17.710938 -6.035156 17.671875 -6.296875 C 17.640625 -6.554688 17.578125 -6.835938 17.484375 -7.140625 L 17.296875 -7.734375 L 20.09375 -9 C 20.238281 -8.570312 20.414062 -8.113281 20.625 -7.625 C 20.800781 -7.195312 21.019531 -6.695312 21.28125 -6.125 C 21.539062 -5.5625 21.84375 -4.945312 22.1875 -4.28125 C 22.507812 -3.632812 22.878906 -2.914062 23.296875 -2.125 C 23.710938 -1.34375 24.238281 -0.484375 24.875 0.453125 L 22.078125 1.734375 C 21.921875 1.492188 21.765625 1.253906 21.609375 1.015625 C 21.484375 0.796875 21.34375 0.554688 21.1875 0.296875 C 21.03125 0.0351562 20.882812 -0.222656 20.75 -0.484375 C 17.894531 0.828125 15.6875 1.851562 14.125 2.59375 C 12.5625 3.332031 11.554688 3.8125 11.109375 4.03125 C 10.285156 4.445312 9.628906 4.910156 9.140625 5.421875 C 8.660156 5.929688 8.328125 6.460938 8.140625 7.015625 C 7.953125 7.578125 7.890625 8.148438 7.953125 8.734375 C 8.023438 9.328125 8.207031 9.90625 8.5 10.46875 C 8.832031 11.132812 9.226562 11.664062 9.6875 12.0625 C 10.15625 12.457031 10.664062 12.722656 11.21875 12.859375 C 11.78125 13.003906 12.382812 13.023438 13.03125 12.921875 C 13.675781 12.816406 14.34375 12.597656 15.03125 12.265625 C 16.226562 11.671875 17.242188 11.171875 18.078125 10.765625 C 18.910156 10.359375 19.597656 10.019531 20.140625 9.75 C 20.679688 9.488281 21.101562 9.285156 21.40625 9.140625 C 21.707031 8.992188 21.925781 8.882812 22.0625 8.8125 C 22.195312 8.75 22.28125 8.707031 22.3125 8.6875 C 22.34375 8.675781 22.363281 8.671875 22.375 8.671875 C 22.863281 8.421875 23.234375 8.175781 23.484375 7.9375 C 23.742188 7.695312 23.921875 7.453125 24.015625 7.203125 C 24.117188 6.953125 24.15625 6.695312 24.125 6.4375 C 24.09375 6.1875 24.023438 5.90625 23.921875 5.59375 L 23.734375 5 L 26.515625 3.71875 C 26.617188 4.050781 26.765625 4.4375 26.953125 4.875 C 27.097656 5.25 27.289062 5.695312 27.53125 6.21875 C 27.769531 6.738281 28.054688 7.335938 28.390625 8.015625 C 28.554688 8.335938 28.722656 8.664062 28.890625 9 C 29.066406 9.34375 29.257812 9.695312 29.46875 10.0625 C 29.675781 10.4375 29.898438 10.828125 30.140625 11.234375 C 30.390625 11.648438 30.675781 12.097656 31 12.578125 L 28.203125 13.84375 C 28.046875 13.601562 27.882812 13.359375 27.71875 13.109375 C 27.59375 12.898438 27.453125 12.660156 27.296875 12.390625 C 27.140625 12.128906 26.988281 11.863281 26.84375 11.59375 Z M 16.90625 15.640625 "/></g></g></g><g fill="#496638" fill-opacity="1"><g transform="translate(117.313938, 229.313396)"><g><path d="M 10.984375 1.671875 C 10.597656 2.117188 10.320312 2.503906 10.15625 2.828125 C 9.988281 3.148438 9.898438 3.445312 9.890625 3.71875 C 9.890625 3.988281 9.953125 4.238281 10.078125 4.46875 C 10.210938 4.695312 10.378906 4.929688 10.578125 5.171875 L 10.96875 5.671875 L 8.875 7.890625 C 8.550781 7.546875 8.191406 7.171875 7.796875 6.765625 C 7.441406 6.421875 7.035156 6.03125 6.578125 5.59375 C 6.128906 5.15625 5.625 4.691406 5.0625 4.203125 C 4.519531 3.734375 3.90625 3.210938 3.21875 2.640625 C 2.53125 2.066406 1.722656 1.460938 0.796875 0.828125 L 2.890625 -1.390625 C 3.117188 -1.242188 3.351562 -1.082031 3.59375 -0.90625 C 3.800781 -0.75 4.03125 -0.578125 4.28125 -0.390625 C 4.53125 -0.210938 4.769531 -0.0234375 5 0.171875 C 5.4375 -0.265625 5.90625 -0.75 6.40625 -1.28125 C 6.914062 -1.820312 7.445312 -2.378906 8 -2.953125 C 8.550781 -3.523438 9.097656 -4.101562 9.640625 -4.6875 C 10.191406 -5.28125 10.71875 -5.847656 11.21875 -6.390625 C 11.71875 -6.941406 12.179688 -7.453125 12.609375 -7.921875 C 13.046875 -8.390625 13.414062 -8.796875 13.71875 -9.140625 C 14.101562 -9.585938 14.375 -9.972656 14.53125 -10.296875 C 14.695312 -10.628906 14.78125 -10.929688 14.78125 -11.203125 C 14.789062 -11.472656 14.726562 -11.722656 14.59375 -11.953125 C 14.46875 -12.191406 14.304688 -12.4375 14.109375 -12.6875 L 13.71875 -13.15625 L 15.828125 -15.375 C 16.179688 -15.007812 16.535156 -14.644531 16.890625 -14.28125 C 17.210938 -13.976562 17.554688 -13.648438 17.921875 -13.296875 C 18.296875 -12.953125 18.648438 -12.632812 18.984375 -12.34375 C 19.316406 -12.050781 19.679688 -11.75 20.078125 -11.4375 C 20.472656 -11.125 20.882812 -10.796875 21.3125 -10.453125 C 21.738281 -10.117188 22.160156 -9.785156 22.578125 -9.453125 C 22.992188 -9.128906 23.40625 -8.789062 23.8125 -8.4375 C 24.789062 -7.570312 25.5625 -6.695312 26.125 -5.8125 C 26.6875 -4.925781 27.035156 -4.046875 27.171875 -3.171875 C 27.304688 -2.296875 27.234375 -1.4375 26.953125 -0.59375 C 26.679688 0.238281 26.210938 1.039062 25.546875 1.8125 C 25.066406 2.363281 24.554688 2.800781 24.015625 3.125 C 23.472656 3.445312 22.914062 3.679688 22.34375 3.828125 C 21.78125 3.972656 21.203125 4.03125 20.609375 4 C 20.015625 3.96875 19.421875 3.867188 18.828125 3.703125 L 18.171875 6.5625 C 18.015625 7.375 17.914062 8.125 17.875 8.8125 C 17.832031 9.5 17.84375 10.113281 17.90625 10.65625 C 17.976562 11.207031 18.097656 11.671875 18.265625 12.046875 C 18.429688 12.429688 18.640625 12.734375 18.890625 12.953125 L 17.046875 14.890625 C 16.898438 14.804688 16.742188 14.710938 16.578125 14.609375 C 16.429688 14.503906 16.257812 14.378906 16.0625 14.234375 C 15.875 14.097656 15.660156 13.925781 15.421875 13.71875 C 14.847656 13.21875 14.363281 12.675781 13.96875 12.09375 C 13.570312 11.519531 13.273438 10.875 13.078125 10.15625 C 12.878906 9.445312 12.785156 8.65625 12.796875 7.78125 C 12.816406 6.90625 12.953125 5.9375 13.203125 4.875 L 14.09375 1.046875 C 14 0.992188 13.910156 0.929688 13.828125 0.859375 C 13.742188 0.785156 13.660156 0.710938 13.578125 0.640625 C 13.398438 0.484375 13.226562 0.328125 13.0625 0.171875 C 12.90625 0.015625 12.769531 -0.109375 12.65625 -0.203125 C 12.34375 0.128906 12.035156 0.46875 11.734375 0.8125 C 11.429688 1.15625 11.179688 1.441406 10.984375 1.671875 Z M 19.59375 -7.421875 C 19.320312 -7.160156 19.007812 -6.851562 18.65625 -6.5 C 18.300781 -6.15625 17.921875 -5.773438 17.515625 -5.359375 C 17.109375 -4.953125 16.679688 -4.515625 16.234375 -4.046875 C 15.796875 -3.585938 15.359375 -3.117188 14.921875 -2.640625 C 15.023438 -2.484375 15.144531 -2.34375 15.28125 -2.21875 C 15.414062 -2.09375 15.5625 -1.960938 15.71875 -1.828125 C 16.6875 -0.984375 17.632812 -0.539062 18.5625 -0.5 C 19.488281 -0.46875 20.320312 -0.878906 21.0625 -1.734375 C 21.457031 -2.179688 21.710938 -2.628906 21.828125 -3.078125 C 21.953125 -3.535156 21.960938 -3.984375 21.859375 -4.421875 C 21.765625 -4.867188 21.578125 -5.300781 21.296875 -5.71875 C 21.015625 -6.132812 20.664062 -6.523438 20.25 -6.890625 C 20.132812 -6.992188 20.019531 -7.09375 19.90625 -7.1875 C 19.789062 -7.289062 19.6875 -7.367188 19.59375 -7.421875 Z M 19.59375 -7.421875 "/></g></g></g><g fill="#496638" fill-opacity="1"><g transform="translate(142.559453, 249.28107)"><g><path d="M 4.671875 -9.84375 C 5.203125 -11.375 5.96875 -12.722656 6.96875 -13.890625 C 7.96875 -15.054688 9.140625 -15.960938 10.484375 -16.609375 C 11.828125 -17.265625 13.304688 -17.632812 14.921875 -17.71875 C 16.535156 -17.800781 18.21875 -17.539062 19.96875 -16.9375 C 21.613281 -16.375 22.96875 -15.585938 24.03125 -14.578125 C 25.09375 -13.566406 25.882812 -12.425781 26.40625 -11.15625 C 26.9375 -9.894531 27.195312 -8.550781 27.1875 -7.125 C 27.1875 -5.707031 26.945312 -4.304688 26.46875 -2.921875 C 26.113281 -1.890625 25.644531 -0.929688 25.0625 -0.046875 C 24.476562 0.835938 23.804688 1.617188 23.046875 2.296875 C 22.296875 2.984375 21.472656 3.5625 20.578125 4.03125 C 19.691406 4.507812 18.757812 4.859375 17.78125 5.078125 C 16.8125 5.296875 15.8125 5.378906 14.78125 5.328125 C 13.757812 5.285156 12.738281 5.085938 11.71875 4.734375 C 9.875 4.097656 8.375 3.253906 7.21875 2.203125 C 6.0625 1.160156 5.207031 -0.00390625 4.65625 -1.296875 C 4.101562 -2.585938 3.835938 -3.960938 3.859375 -5.421875 C 3.890625 -6.890625 4.160156 -8.363281 4.671875 -9.84375 Z M 17.984375 -13.9375 C 17.097656 -14.238281 16.253906 -14.289062 15.453125 -14.09375 C 14.660156 -13.894531 13.929688 -13.523438 13.265625 -12.984375 C 12.597656 -12.453125 12.007812 -11.804688 11.5 -11.046875 C 11 -10.285156 10.609375 -9.488281 10.328125 -8.65625 C 9.941406 -7.5625 9.707031 -6.46875 9.625 -5.375 C 9.539062 -4.289062 9.601562 -3.289062 9.8125 -2.375 C 10.03125 -1.457031 10.40625 -0.660156 10.9375 0.015625 C 11.46875 0.691406 12.15625 1.175781 13 1.46875 C 13.882812 1.769531 14.726562 1.820312 15.53125 1.625 C 16.332031 1.4375 17.0625 1.070312 17.71875 0.53125 C 18.382812 0 18.96875 -0.644531 19.46875 -1.40625 C 19.976562 -2.175781 20.378906 -2.988281 20.671875 -3.84375 C 21.046875 -4.9375 21.273438 -6.019531 21.359375 -7.09375 C 21.453125 -8.175781 21.390625 -9.175781 21.171875 -10.09375 C 20.953125 -11.007812 20.578125 -11.804688 20.046875 -12.484375 C 19.523438 -13.160156 18.835938 -13.644531 17.984375 -13.9375 Z M 17.984375 -13.9375 "/></g></g></g><g fill="#496638" fill-opacity="1"><g transform="translate(174.320992, 257.774672)"><g/></g></g><g fill="#496638" fill-opacity="1"><g transform="translate(189.561084, 258.731904)"><g><path d="M 3.046875 -3.96875 C 2.953125 -4.5625 2.832031 -5.222656 2.6875 -5.953125 C 2.550781 -6.679688 2.410156 -7.429688 2.265625 -8.203125 C 2.117188 -8.984375 1.96875 -9.769531 1.8125 -10.5625 C 1.65625 -11.363281 1.503906 -12.125 1.359375 -12.84375 C 1.210938 -13.570312 1.070312 -14.25 0.9375 -14.875 C 0.800781 -15.5 0.679688 -16.035156 0.578125 -16.484375 C 0.441406 -17.054688 0.285156 -17.503906 0.109375 -17.828125 C -0.0664062 -18.148438 -0.257812 -18.390625 -0.46875 -18.546875 C -0.6875 -18.710938 -0.929688 -18.804688 -1.203125 -18.828125 C -1.472656 -18.859375 -1.765625 -18.863281 -2.078125 -18.84375 L -2.6875 -18.796875 L -3.25 -21.8125 C -2.757812 -21.863281 -2.273438 -21.921875 -1.796875 -21.984375 C -1.410156 -22.035156 -0.988281 -22.097656 -0.53125 -22.171875 C -0.0820312 -22.253906 0.320312 -22.335938 0.6875 -22.421875 C 1.289062 -22.566406 1.875 -22.722656 2.4375 -22.890625 C 3.007812 -23.066406 3.585938 -23.25 4.171875 -23.4375 C 4.765625 -23.625 5.367188 -23.804688 5.984375 -23.984375 C 6.597656 -24.171875 7.257812 -24.347656 7.96875 -24.515625 C 9.632812 -24.898438 11.191406 -25.003906 12.640625 -24.828125 C 14.085938 -24.660156 15.378906 -24.234375 16.515625 -23.546875 C 17.660156 -22.859375 18.628906 -21.925781 19.421875 -20.75 C 20.210938 -19.570312 20.796875 -18.179688 21.171875 -16.578125 C 21.335938 -15.847656 21.445312 -15.046875 21.5 -14.171875 C 21.5625 -13.296875 21.515625 -12.398438 21.359375 -11.484375 C 21.203125 -10.578125 20.914062 -9.671875 20.5 -8.765625 C 20.09375 -7.859375 19.515625 -7.007812 18.765625 -6.21875 C 18.015625 -5.425781 17.066406 -4.710938 15.921875 -4.078125 C 14.773438 -3.441406 13.390625 -2.9375 11.765625 -2.5625 C 11.242188 -2.4375 10.722656 -2.332031 10.203125 -2.25 C 9.679688 -2.164062 9.148438 -2.082031 8.609375 -2 C 8.066406 -1.914062 7.519531 -1.828125 6.96875 -1.734375 C 6.414062 -1.648438 5.851562 -1.539062 5.28125 -1.40625 C 5.101562 -1.363281 4.863281 -1.300781 4.5625 -1.21875 C 4.269531 -1.132812 3.929688 -1.039062 3.546875 -0.9375 C 3.171875 -0.832031 2.769531 -0.710938 2.34375 -0.578125 C 1.925781 -0.441406 1.519531 -0.304688 1.125 -0.171875 L 0.5625 -3.15625 C 0.71875 -3.226562 0.878906 -3.296875 1.046875 -3.359375 C 1.222656 -3.421875 1.40625 -3.484375 1.59375 -3.546875 C 1.789062 -3.609375 2.007812 -3.671875 2.25 -3.734375 C 2.488281 -3.804688 2.753906 -3.882812 3.046875 -3.96875 Z M 5.21875 -20.28125 C 5.644531 -18.132812 6.003906 -16.328125 6.296875 -14.859375 C 6.597656 -13.390625 6.84375 -12.175781 7.03125 -11.21875 C 7.21875 -10.269531 7.363281 -9.53125 7.46875 -9 C 7.582031 -8.46875 7.660156 -8.078125 7.703125 -7.828125 C 7.753906 -7.585938 7.785156 -7.4375 7.796875 -7.375 C 7.804688 -7.320312 7.8125 -7.289062 7.8125 -7.28125 C 7.894531 -6.9375 8.007812 -6.660156 8.15625 -6.453125 C 8.3125 -6.242188 8.523438 -6.09375 8.796875 -6 C 9.066406 -5.90625 9.414062 -5.875 9.84375 -5.90625 C 10.269531 -5.945312 10.820312 -6.046875 11.5 -6.203125 C 11.832031 -6.273438 12.203125 -6.410156 12.609375 -6.609375 C 13.015625 -6.804688 13.40625 -7.066406 13.78125 -7.390625 C 14.15625 -7.722656 14.503906 -8.128906 14.828125 -8.609375 C 15.160156 -9.085938 15.421875 -9.648438 15.609375 -10.296875 C 15.796875 -10.953125 15.890625 -11.703125 15.890625 -12.546875 C 15.898438 -13.398438 15.785156 -14.359375 15.546875 -15.421875 C 15.441406 -15.867188 15.289062 -16.34375 15.09375 -16.84375 C 14.894531 -17.34375 14.644531 -17.828125 14.34375 -18.296875 C 14.039062 -18.773438 13.675781 -19.21875 13.25 -19.625 C 12.832031 -20.039062 12.34375 -20.375 11.78125 -20.625 C 11.226562 -20.875 10.597656 -21.035156 9.890625 -21.109375 C 9.191406 -21.179688 8.414062 -21.117188 7.5625 -20.921875 C 7.113281 -20.816406 6.675781 -20.703125 6.25 -20.578125 C 5.820312 -20.460938 5.476562 -20.363281 5.21875 -20.28125 Z M 5.21875 -20.28125 "/></g></g></g><g fill="#496638" fill-opacity="1"><g transform="translate(221.811886, 248.803175)"><g><path d="M -10.015625 -19.640625 C -9.609375 -19.835938 -9.15625 -20.070312 -8.65625 -20.34375 C -8.238281 -20.550781 -7.75 -20.8125 -7.1875 -21.125 C -6.632812 -21.445312 -6.039062 -21.804688 -5.40625 -22.203125 C -4.78125 -22.585938 -4.097656 -23.019531 -3.359375 -23.5 C -2.617188 -23.976562 -1.796875 -24.578125 -0.890625 -25.296875 L 0.59375 -22.625 C 0.375 -22.445312 0.144531 -22.269531 -0.09375 -22.09375 C -0.289062 -21.9375 -0.507812 -21.769531 -0.75 -21.59375 C -1 -21.425781 -1.253906 -21.265625 -1.515625 -21.109375 C -1.210938 -20.535156 -0.882812 -19.925781 -0.53125 -19.28125 C -0.1875 -18.632812 0.175781 -17.96875 0.5625 -17.28125 C 0.957031 -16.59375 1.351562 -15.898438 1.75 -15.203125 C 2.144531 -14.503906 2.523438 -13.832031 2.890625 -13.1875 C 3.265625 -12.550781 3.613281 -11.957031 3.9375 -11.40625 C 4.269531 -10.851562 4.554688 -10.382812 4.796875 -10 C 5.109375 -9.488281 5.398438 -9.109375 5.671875 -8.859375 C 5.941406 -8.609375 6.203125 -8.441406 6.453125 -8.359375 C 6.710938 -8.273438 6.972656 -8.257812 7.234375 -8.3125 C 7.503906 -8.363281 7.78125 -8.457031 8.0625 -8.59375 L 8.65625 -8.828125 L 10.140625 -6.171875 C 9.710938 -5.953125 9.253906 -5.71875 8.765625 -5.46875 C 8.328125 -5.226562 7.832031 -4.953125 7.28125 -4.640625 C 6.738281 -4.335938 6.148438 -3.992188 5.515625 -3.609375 C 4.898438 -3.222656 4.21875 -2.785156 3.46875 -2.296875 C 2.726562 -1.804688 1.910156 -1.210938 1.015625 -0.515625 L -0.46875 -3.1875 C -0.257812 -3.34375 -0.0390625 -3.515625 0.1875 -3.703125 C 0.382812 -3.859375 0.609375 -4.023438 0.859375 -4.203125 C 1.117188 -4.390625 1.378906 -4.566406 1.640625 -4.734375 C 1.347656 -5.273438 1.019531 -5.867188 0.65625 -6.515625 C 0.289062 -7.160156 -0.0820312 -7.828125 -0.46875 -8.515625 C -0.851562 -9.203125 -1.242188 -9.894531 -1.640625 -10.59375 C -2.046875 -11.300781 -2.429688 -11.972656 -2.796875 -12.609375 C -3.171875 -13.242188 -3.519531 -13.835938 -3.84375 -14.390625 C -4.175781 -14.941406 -4.460938 -15.410156 -4.703125 -15.796875 C -5.015625 -16.296875 -5.304688 -16.671875 -5.578125 -16.921875 C -5.847656 -17.179688 -6.109375 -17.351562 -6.359375 -17.4375 C -6.617188 -17.519531 -6.878906 -17.53125 -7.140625 -17.46875 C -7.398438 -17.414062 -7.675781 -17.332031 -7.96875 -17.21875 L -8.53125 -16.96875 Z M -10.015625 -19.640625 "/></g></g></g><g fill="#496638" fill-opacity="1"><g transform="translate(240.241119, 236.882689)"><g><path d="M 7.796875 -14.859375 C 7.328125 -15.296875 6.96875 -15.625 6.71875 -15.84375 C 6.476562 -16.0625 6.304688 -16.21875 6.203125 -16.3125 C 6.097656 -16.40625 6.035156 -16.457031 6.015625 -16.46875 C 6.003906 -16.488281 5.988281 -16.503906 5.96875 -16.515625 C 5.582031 -16.835938 5.234375 -17.0625 4.921875 -17.1875 C 4.617188 -17.3125 4.335938 -17.359375 4.078125 -17.328125 C 3.816406 -17.296875 3.570312 -17.210938 3.34375 -17.078125 C 3.125 -16.953125 2.90625 -16.789062 2.6875 -16.59375 L 2.1875 -16.15625 L -0.078125 -18.203125 C 0.328125 -18.628906 0.738281 -19.054688 1.15625 -19.484375 C 1.519531 -19.867188 1.894531 -20.273438 2.28125 -20.703125 C 2.675781 -21.128906 3.039062 -21.539062 3.375 -21.9375 C 3.65625 -22.28125 3.929688 -22.617188 4.203125 -22.953125 C 4.472656 -23.285156 4.742188 -23.625 5.015625 -23.96875 C 5.285156 -24.320312 5.5625 -24.691406 5.84375 -25.078125 C 6.125 -25.472656 6.421875 -25.90625 6.734375 -26.375 L 9 -24.3125 C 8.832031 -24.070312 8.671875 -23.832031 8.515625 -23.59375 C 8.367188 -23.382812 8.203125 -23.15625 8.015625 -22.90625 C 7.835938 -22.65625 7.65625 -22.414062 7.46875 -22.1875 L 13.265625 -17 C 13.097656 -16.507812 12.867188 -15.960938 12.578125 -15.359375 C 12.285156 -14.765625 11.960938 -14.160156 11.609375 -13.546875 C 11.265625 -12.941406 10.90625 -12.359375 10.53125 -11.796875 C 10.15625 -11.234375 9.796875 -10.75 9.453125 -10.34375 C 8.285156 -8.945312 7.019531 -7.800781 5.65625 -6.90625 C 4.289062 -6.019531 2.875 -5.4375 1.40625 -5.15625 C -0.0507812 -4.875 -1.523438 -4.9375 -3.015625 -5.34375 C -4.503906 -5.75 -5.953125 -6.535156 -7.359375 -7.703125 C -8.816406 -8.921875 -9.90625 -10.257812 -10.625 -11.71875 C -11.34375 -13.175781 -11.71875 -14.679688 -11.75 -16.234375 C -11.789062 -17.785156 -11.492188 -19.347656 -10.859375 -20.921875 C -10.234375 -22.492188 -9.304688 -24.007812 -8.078125 -25.46875 C -7.585938 -26.0625 -7.101562 -26.597656 -6.625 -27.078125 C -6.15625 -27.566406 -5.703125 -28.007812 -5.265625 -28.40625 C -4.828125 -28.800781 -4.398438 -29.160156 -3.984375 -29.484375 C -3.578125 -29.816406 -3.179688 -30.125 -2.796875 -30.40625 L 2.46875 -25.703125 L -0.078125 -22.65625 L -0.25 -22.796875 C -0.613281 -23.097656 -1.019531 -23.363281 -1.46875 -23.59375 C -1.914062 -23.832031 -2.394531 -23.96875 -2.90625 -24 C -3.425781 -24.03125 -3.960938 -23.921875 -4.515625 -23.671875 C -5.078125 -23.429688 -5.632812 -22.972656 -6.1875 -22.296875 C -6.675781 -21.722656 -7.035156 -21.046875 -7.265625 -20.265625 C -7.492188 -19.492188 -7.546875 -18.671875 -7.421875 -17.796875 C -7.304688 -16.929688 -6.984375 -16.039062 -6.453125 -15.125 C -5.921875 -14.207031 -5.140625 -13.3125 -4.109375 -12.4375 C -3.140625 -11.632812 -2.148438 -11.039062 -1.140625 -10.65625 C -0.140625 -10.28125 0.820312 -10.085938 1.75 -10.078125 C 2.6875 -10.066406 3.554688 -10.238281 4.359375 -10.59375 C 5.171875 -10.957031 5.859375 -11.472656 6.421875 -12.140625 C 6.804688 -12.609375 7.117188 -13.066406 7.359375 -13.515625 C 7.597656 -13.960938 7.742188 -14.410156 7.796875 -14.859375 Z M 7.796875 -14.859375 "/></g></g></g><g fill="#496638" fill-opacity="1"><g transform="translate(259.759576, 209.992166)"><g><path d="M -19.796875 -9.734375 C -19.578125 -10.140625 -19.347656 -10.59375 -19.109375 -11.09375 C -18.898438 -11.519531 -18.664062 -12.023438 -18.40625 -12.609375 C -18.15625 -13.203125 -17.894531 -13.847656 -17.625 -14.546875 C -17.351562 -15.222656 -17.0625 -15.976562 -16.75 -16.8125 C -16.445312 -17.644531 -16.148438 -18.613281 -15.859375 -19.71875 L -13.078125 -18.46875 C -13.140625 -18.207031 -13.210938 -17.929688 -13.296875 -17.640625 C -13.367188 -17.390625 -13.453125 -17.117188 -13.546875 -16.828125 C -13.640625 -16.546875 -13.738281 -16.265625 -13.84375 -15.984375 C -13.28125 -15.722656 -12.660156 -15.4375 -11.984375 -15.125 C -11.316406 -14.8125 -10.617188 -14.492188 -9.890625 -14.171875 C -9.160156 -13.859375 -8.425781 -13.539062 -7.6875 -13.21875 C -6.957031 -12.894531 -6.253906 -12.585938 -5.578125 -12.296875 C -4.898438 -12.003906 -4.257812 -11.738281 -3.65625 -11.5 C -3.0625 -11.257812 -2.554688 -11.054688 -2.140625 -10.890625 C -1.578125 -10.671875 -1.113281 -10.535156 -0.75 -10.484375 C -0.394531 -10.441406 -0.09375 -10.46875 0.15625 -10.5625 C 0.414062 -10.65625 0.632812 -10.800781 0.8125 -11 C 0.988281 -11.195312 1.15625 -11.4375 1.3125 -11.71875 L 1.640625 -12.25 L 4.4375 -11.015625 C 4.21875 -10.585938 3.988281 -10.125 3.75 -9.625 C 3.539062 -9.175781 3.304688 -8.664062 3.046875 -8.09375 C 2.796875 -7.519531 2.535156 -6.882812 2.265625 -6.1875 C 2.003906 -5.519531 1.71875 -4.765625 1.40625 -3.921875 C 1.09375 -3.078125 0.796875 -2.113281 0.515625 -1.03125 L -2.28125 -2.25 C -2.21875 -2.519531 -2.144531 -2.796875 -2.0625 -3.078125 C -1.988281 -3.316406 -1.90625 -3.585938 -1.8125 -3.890625 C -1.726562 -4.191406 -1.628906 -4.484375 -1.515625 -4.765625 C -2.078125 -5.023438 -2.695312 -5.300781 -3.375 -5.59375 C -4.050781 -5.894531 -4.75 -6.207031 -5.46875 -6.53125 C -6.195312 -6.863281 -6.929688 -7.1875 -7.671875 -7.5 C -8.410156 -7.820312 -9.117188 -8.128906 -9.796875 -8.421875 C -10.484375 -8.710938 -11.117188 -8.976562 -11.703125 -9.21875 C -12.296875 -9.46875 -12.804688 -9.675781 -13.234375 -9.84375 C -13.773438 -10.050781 -14.226562 -10.175781 -14.59375 -10.21875 C -14.96875 -10.257812 -15.28125 -10.238281 -15.53125 -10.15625 C -15.789062 -10.070312 -16.007812 -9.925781 -16.1875 -9.71875 C -16.363281 -9.519531 -16.53125 -9.285156 -16.6875 -9.015625 L -17 -8.484375 Z M -19.796875 -9.734375 "/></g></g></g><g fill="#496638" fill-opacity="1"><g transform="translate(267.118957, 189.603053)"><g><path d="M -13.171875 -19.21875 L -14.046875 -19.15625 C -14.441406 -19.132812 -14.773438 -19.070312 -15.046875 -18.96875 C -15.316406 -18.875 -15.535156 -18.726562 -15.703125 -18.53125 C -15.867188 -18.34375 -16 -18.09375 -16.09375 -17.78125 C -16.1875 -17.476562 -16.28125 -17.097656 -16.375 -16.640625 L -16.640625 -15.15625 C -15.734375 -15.019531 -14.820312 -14.894531 -13.90625 -14.78125 C -12.988281 -14.675781 -12.097656 -14.578125 -11.234375 -14.484375 C -10.378906 -14.390625 -9.578125 -14.300781 -8.828125 -14.21875 C -8.078125 -14.144531 -7.410156 -14.078125 -6.828125 -14.015625 C -6.253906 -13.960938 -5.78125 -13.921875 -5.40625 -13.890625 C -5.03125 -13.859375 -4.789062 -13.835938 -4.6875 -13.828125 C -4.15625 -13.785156 -3.722656 -13.800781 -3.390625 -13.875 C -3.066406 -13.945312 -2.804688 -14.0625 -2.609375 -14.21875 C -2.410156 -14.375 -2.253906 -14.570312 -2.140625 -14.8125 C -2.035156 -15.050781 -1.953125 -15.320312 -1.890625 -15.625 L -1.734375 -16.296875 L 1.28125 -15.96875 C 1.207031 -15.5 1.128906 -14.988281 1.046875 -14.4375 C 0.984375 -13.957031 0.914062 -13.40625 0.84375 -12.78125 C 0.769531 -12.15625 0.703125 -11.46875 0.640625 -10.71875 C 0.585938 -9.988281 0.535156 -9.179688 0.484375 -8.296875 C 0.441406 -7.410156 0.441406 -6.398438 0.484375 -5.265625 L -2.53125 -5.59375 C -2.539062 -5.875 -2.550781 -6.164062 -2.5625 -6.46875 C -2.5625 -6.71875 -2.5625 -7 -2.5625 -7.3125 C -2.570312 -7.632812 -2.566406 -7.945312 -2.546875 -8.25 C -3.148438 -8.320312 -3.8125 -8.40625 -4.53125 -8.5 C -5.257812 -8.601562 -6.003906 -8.695312 -6.765625 -8.78125 C -7.523438 -8.875 -8.296875 -8.960938 -9.078125 -9.046875 C -9.859375 -9.140625 -10.609375 -9.21875 -11.328125 -9.28125 C -12.046875 -9.351562 -12.710938 -9.414062 -13.328125 -9.46875 C -13.941406 -9.53125 -14.476562 -9.582031 -14.9375 -9.625 L -17.59375 -9.8125 C -17.675781 -9.382812 -17.734375 -9.035156 -17.765625 -8.765625 C -17.804688 -8.503906 -17.835938 -8.304688 -17.859375 -8.171875 C -17.878906 -8.046875 -17.890625 -7.957031 -17.890625 -7.90625 C -17.898438 -7.863281 -17.90625 -7.832031 -17.90625 -7.8125 C -17.925781 -7.507812 -17.894531 -7.21875 -17.8125 -6.9375 C -17.726562 -6.664062 -17.578125 -6.414062 -17.359375 -6.1875 C -17.140625 -5.96875 -16.835938 -5.769531 -16.453125 -5.59375 C -16.078125 -5.425781 -15.59375 -5.28125 -15 -5.15625 L -14.234375 -5.015625 L -14.46875 -1.953125 L -21.84375 -2.75 C -21.71875 -3.726562 -21.59375 -4.726562 -21.46875 -5.75 C -21.414062 -6.1875 -21.363281 -6.65625 -21.3125 -7.15625 C -21.269531 -7.65625 -21.21875 -8.164062 -21.15625 -8.6875 C -21.101562 -9.207031 -21.054688 -9.726562 -21.015625 -10.25 C -20.972656 -10.78125 -20.929688 -11.300781 -20.890625 -11.8125 C -20.796875 -13.050781 -20.710938 -14.164062 -20.640625 -15.15625 C -20.578125 -16.144531 -20.519531 -17.082031 -20.46875 -17.96875 C -20.425781 -18.863281 -20.394531 -19.738281 -20.375 -20.59375 C -20.363281 -21.445312 -20.367188 -22.347656 -20.390625 -23.296875 L -12.953125 -22.28125 Z M -13.171875 -19.21875 "/></g></g></g><g fill="#496638" fill-opacity="1"><g transform="translate(267.925456, 159.023891)"><g><path d="M -12.09375 -17.125 C -11.507812 -17.550781 -11.050781 -17.929688 -10.71875 -18.265625 C -10.382812 -18.609375 -10.132812 -18.921875 -9.96875 -19.203125 C -9.800781 -19.484375 -9.691406 -19.75 -9.640625 -20 C -9.585938 -20.25 -9.554688 -20.507812 -9.546875 -20.78125 L -9.5 -21.5625 L -6.53125 -22.3125 C -6.394531 -21.625 -6.226562 -20.847656 -6.03125 -19.984375 C -5.832031 -19.128906 -5.59375 -18.226562 -5.3125 -17.28125 C -5.019531 -16.28125 -4.707031 -15.328125 -4.375 -14.421875 C -4.050781 -13.515625 -3.742188 -12.695312 -3.453125 -11.96875 L -6.421875 -11.21875 C -6.640625 -11.707031 -6.820312 -12.140625 -6.96875 -12.515625 C -7.113281 -12.890625 -7.242188 -13.269531 -7.359375 -13.65625 L -10.203125 -11.765625 C -9.910156 -10.859375 -9.566406 -9.832031 -9.171875 -8.6875 C -8.785156 -7.539062 -8.367188 -6.347656 -7.921875 -5.109375 C -7.523438 -5.078125 -7.175781 -5.066406 -6.875 -5.078125 C -6.582031 -5.097656 -6.332031 -5.140625 -6.125 -5.203125 C -5.71875 -5.328125 -5.453125 -5.523438 -5.328125 -5.796875 C -5.203125 -6.066406 -5.171875 -6.421875 -5.234375 -6.859375 L -5.296875 -7.46875 L -2.34375 -8.21875 C -2.289062 -7.90625 -2.222656 -7.515625 -2.140625 -7.046875 C -2.054688 -6.679688 -1.945312 -6.222656 -1.8125 -5.671875 C -1.675781 -5.117188 -1.503906 -4.488281 -1.296875 -3.78125 C -1.191406 -3.4375 -1.09375 -3.117188 -1 -2.828125 C -0.90625 -2.535156 -0.804688 -2.238281 -0.703125 -1.9375 C -0.597656 -1.632812 -0.472656 -1.289062 -0.328125 -0.90625 C -0.179688 -0.53125 0.00390625 -0.0820312 0.234375 0.4375 L -2.71875 1.1875 C -2.78125 1.070312 -2.851562 0.925781 -2.9375 0.75 C -3 0.613281 -3.070312 0.4375 -3.15625 0.21875 C -3.25 0 -3.351562 -0.253906 -3.46875 -0.546875 L -23.796875 -3.1875 L -25.546875 -6.859375 Z M -12 -5.265625 L -13.3125 -9.671875 L -18.578125 -6.171875 L -18.390625 -5.5625 Z M -12 -5.265625 "/></g></g></g><g fill="#496638" fill-opacity="1"><g transform="translate(257.117213, 128.969443)"><g><path d="M -3.109375 0.796875 C -3.285156 0.597656 -3.476562 0.394531 -3.6875 0.1875 C -3.851562 0 -4.039062 -0.207031 -4.25 -0.4375 C -4.457031 -0.675781 -4.648438 -0.914062 -4.828125 -1.15625 C -5.347656 -0.832031 -5.910156 -0.457031 -6.515625 -0.03125 C -7.128906 0.394531 -7.757812 0.828125 -8.40625 1.265625 C -9.0625 1.710938 -9.71875 2.171875 -10.375 2.640625 C -11.039062 3.109375 -11.675781 3.554688 -12.28125 3.984375 C -12.882812 4.410156 -13.441406 4.8125 -13.953125 5.1875 C -14.472656 5.570312 -14.914062 5.898438 -15.28125 6.171875 C -15.75 6.523438 -16.09375 6.847656 -16.3125 7.140625 C -16.539062 7.429688 -16.6875 7.707031 -16.75 7.96875 C -16.8125 8.226562 -16.800781 8.484375 -16.71875 8.734375 C -16.644531 8.992188 -16.535156 9.265625 -16.390625 9.546875 L -16.078125 10.09375 L -18.625 11.828125 C -18.851562 11.429688 -19.125 10.992188 -19.4375 10.515625 C -19.6875 10.128906 -19.992188 9.671875 -20.359375 9.140625 C -20.722656 8.617188 -21.128906 8.054688 -21.578125 7.453125 C -22.023438 6.867188 -22.519531 6.226562 -23.0625 5.53125 C -23.613281 4.84375 -24.289062 4.085938 -25.09375 3.265625 L -22.546875 1.53125 C -22.367188 1.726562 -22.175781 1.9375 -21.96875 2.15625 C -21.800781 2.34375 -21.617188 2.546875 -21.421875 2.765625 C -21.222656 2.992188 -21.03125 3.226562 -20.84375 3.46875 C -20.164062 3.082031 -18.78125 2.148438 -16.6875 0.671875 C -14.59375 -0.804688 -11.828125 -2.78125 -8.390625 -5.25 L -10.65625 -7.828125 C -11.039062 -8.285156 -11.421875 -8.625 -11.796875 -8.84375 C -12.179688 -9.0625 -12.570312 -9.1875 -12.96875 -9.21875 C -13.375 -9.257812 -13.8125 -9.207031 -14.28125 -9.0625 C -14.75 -8.925781 -15.269531 -8.726562 -15.84375 -8.46875 L -18.296875 -11.71875 L -11.484375 -15.71875 C -10.609375 -14.332031 -9.671875 -12.914062 -8.671875 -11.46875 C -7.679688 -10.03125 -6.578125 -8.503906 -5.359375 -6.890625 C -4.585938 -5.878906 -3.804688 -4.867188 -3.015625 -3.859375 C -2.222656 -2.859375 -1.414062 -1.890625 -0.59375 -0.953125 Z M -3.109375 0.796875 "/></g></g></g><path fill="#8cc63f" d="M 211.207031 172.636719 C 208.570312 170.390625 207.839844 164.484375 213.117188 157.453125 C 218.539062 150.230469 231.066406 146.65625 231.066406 146.65625 C 231.066406 146.65625 231.167969 159.632812 225.746094 166.855469 C 220.324219 174.082031 214.246094 174.910156 211.429688 172.8125 C 211.355469 172.757812 211.28125 172.699219 211.207031 172.636719 Z M 211.207031 172.636719 " fill-opacity="1" fill-rule="nonzero"/><path fill="#8cc63f" d="M 203.875 151.832031 C 200.5 151.320312 196.667969 147.023438 196.667969 138.582031 C 196.667969 129.5625 204.554688 119.230469 204.554688 119.230469 C 204.554688 119.230469 212.441406 129.5625 212.441406 138.582031 C 212.441406 147.597656 208.070312 151.882812 204.554688 151.882812 C 204.328125 151.882812 204.101562 151.867188 203.875 151.832031 Z M 203.875 151.832031 " fill-opacity="1" fill-rule="nonzero"/><path fill="#8cc63f" d="M 200.078125 177.265625 C 200.042969 177.292969 200.011719 177.320312 199.976562 177.347656 C 197.160156 179.445312 191.082031 178.613281 185.660156 171.390625 C 180.234375 164.167969 180.335938 151.191406 180.335938 151.191406 C 180.335938 151.191406 192.867188 154.765625 198.289062 161.988281 C 203.644531 169.125 202.816406 175.101562 200.078125 177.265625 Z M 200.078125 177.265625 " fill-opacity="1" fill-rule="nonzero"/><path fill="#cccccc" d="M 157.757812 179.851562 L 157.742188 179.851562 C 156.824219 179.851562 155.914062 179.761719 155.015625 179.582031 C 154.113281 179.402344 153.238281 179.132812 152.390625 178.78125 C 151.542969 178.429688 150.738281 177.996094 149.972656 177.484375 C 149.210938 176.972656 148.503906 176.386719 147.855469 175.738281 C 147.207031 175.085938 146.625 174.375 146.117188 173.609375 C 145.605469 172.839844 145.175781 172.03125 144.824219 171.179688 C 144.472656 170.328125 144.207031 169.449219 144.027344 168.542969 C 143.847656 167.640625 143.761719 166.726562 143.761719 165.804688 L 143.761719 151.882812 L 171.84375 151.882812 L 171.84375 165.804688 C 171.84375 166.726562 171.757812 167.640625 171.578125 168.542969 C 171.398438 169.449219 171.132812 170.328125 170.78125 171.179688 C 170.429688 172.03125 170 172.839844 169.488281 173.609375 C 168.980469 174.375 168.398438 175.085938 167.75 175.734375 C 167.101562 176.386719 166.394531 176.972656 165.632812 177.484375 C 164.871094 177.996094 164.0625 178.429688 163.214844 178.78125 C 162.367188 179.132812 161.492188 179.402344 160.59375 179.582031 C 159.691406 179.761719 158.785156 179.851562 157.867188 179.851562 Z M 157.757812 179.851562 " fill-opacity="1" fill-rule="nonzero"/><g clip-path="url(#8b7977b88c)"><path stroke-linecap="round" transform="matrix(0.122946, 0, 0, 0.123515, 125.941314, 108.233138)" fill="none" stroke-linejoin="round" d="M 703.562315 245.678805 C 703.562315 318.671026 668.009326 353.396095 639.414429 353.396095 C 637.571646 353.396095 635.728864 353.269592 633.886082 352.984961 C 606.43498 348.810362 575.266542 314.022042 575.266542 245.678805 C 575.266542 172.654958 639.414429 89.00486 639.414429 89.00486 C 639.414429 89.00486 703.562315 172.654958 703.562315 245.678805 Z M 703.562315 245.678805 " stroke="#000000" stroke-width="28" stroke-opacity="1" stroke-miterlimit="4"/></g><g clip-path="url(#6724eaee49)"><path stroke-linecap="round" transform="matrix(0.122946, 0, 0, 0.123515, 125.941314, 108.233138)" fill="none" stroke-linejoin="round" d="M 811.778116 474.617579 C 767.678429 533.125209 718.241029 539.829867 695.333339 522.846842 C 694.729669 522.404081 694.125999 521.929695 693.522329 521.423683 C 672.076156 503.238879 666.134772 455.420752 709.05889 398.494409 C 753.158576 340.018405 855.051727 311.080847 855.051727 311.080847 C 855.051727 311.080847 855.877802 416.141575 811.778116 474.617579 Z M 811.778116 474.617579 " stroke="#000000" stroke-width="28" stroke-opacity="1" stroke-miterlimit="4"/></g><path stroke-linecap="round" transform="matrix(0.122946, 0, 0, 0.123515, 125.941314, 108.233138)" fill="none" stroke-linejoin="round" d="M 603.003593 558.900192 C 625.244068 541.379529 632.011528 492.960512 588.451967 435.2119 C 544.352281 376.735896 442.427358 347.798338 442.427358 347.798338 C 442.427358 347.798338 441.601283 452.859066 485.732741 511.33507 C 529.832428 569.811074 579.269828 576.515732 602.177518 559.564333 C 602.463467 559.342952 602.717644 559.121572 603.003593 558.900192 " stroke="#000000" stroke-width="28" stroke-opacity="1" stroke-miterlimit="4"/><g clip-path="url(#20c91e2ea1)"><path stroke-linecap="round" transform="matrix(0.122946, 0, 0, 0.123515, 125.941314, 108.233138)" fill="none" stroke-linejoin="round" d="M 258.784573 579.80481 C 259.165838 1117.062981 766.02628 904.696097 696.445363 615.257271 C 692.918659 598.748632 687.009047 583.410145 680.146271 567.502395 C 662.989333 527.653955 640.113415 484.20018 634.45798 409.658297 C 633.028235 390.777727 632.837602 371.865531 633.886082 352.984961 C 635.029878 332.301723 637.571646 311.839865 641.54316 291.504511 " stroke="#000000" stroke-width="28" stroke-opacity="1" stroke-miterlimit="4"/></g><path stroke-linecap="round" transform="matrix(0.122946, 0, 0, 0.123515, 125.941314, 108.233138)" fill="none" stroke-linejoin="round" d="M 696.445363 615.257271 C 661.241867 603.176236 630.105201 584.390543 603.003593 558.900192 C 579.3016 536.604041 560.46074 510.765807 546.44924 481.385489 " stroke="#000000" stroke-width="28" stroke-opacity="1" stroke-miterlimit="4"/><path stroke-linecap="round" transform="matrix(0.122946, 0, 0, 0.123515, 125.941314, 108.233138)" fill="none" stroke-linejoin="round" d="M 680.146271 567.502395 C 683.196394 551.721148 687.644489 536.351035 693.522329 521.423683 C 696.540679 513.86513 699.940295 506.148448 703.975353 498.273637 C 713.316352 480.057208 724.627223 463.169059 737.971508 447.640818 " stroke="#000000" stroke-width="28" stroke-opacity="1" stroke-miterlimit="4"/><g clip-path="url(#c68868c96a)"><path stroke-linecap="round" transform="matrix(0.122946, 0, 0, 0.123515, 125.941314, 108.233138)" fill="none" stroke-linejoin="round" d="M 332.114598 353.396095 L 373.354795 353.396095 L 373.354795 466.110254 C 373.354795 473.57393 372.655808 480.974354 371.194292 488.279901 C 369.732775 495.617075 367.572271 502.732867 364.712781 509.62728 C 361.853292 516.521693 358.35836 523.068222 354.196214 529.298494 C 350.06584 535.49714 345.331795 541.253026 340.057626 546.5029 C 334.783456 551.784399 329.032704 556.528261 322.837143 560.671234 C 316.641582 564.814206 310.064755 568.324664 303.170208 571.170981 C 296.27566 574.017299 289.158708 576.199475 281.851123 577.654259 C 274.511766 579.109044 267.140637 579.836436 259.674192 579.836436 L 258.657484 579.836436 C 251.191039 579.836436 243.788138 579.109044 236.480553 577.654259 C 229.141196 576.199475 222.024244 574.017299 215.129696 571.170981 C 208.235149 568.324664 201.690094 564.814206 195.462761 560.671234 C 189.2672 556.528261 183.516449 551.816025 178.242279 546.534525 C 172.968109 541.253026 168.234064 535.49714 164.10369 529.298494 C 159.941544 523.068222 156.446612 516.521693 153.587123 509.62728 C 150.727633 502.732867 148.56713 495.617075 147.105613 488.311527 C 145.644096 480.974354 144.945109 473.57393 144.945109 466.110254 L 144.945109 353.396095 Z M 332.114598 353.396095 " stroke="#000000" stroke-width="28" stroke-opacity="1" stroke-miterlimit="4"/></g><path stroke-linecap="round" transform="matrix(0.122946, 0, 0, 0.123515, 125.941314, 108.233138)" fill="none" stroke-linejoin="round" d="M 188.917707 353.396095 L 188.917707 233.850776 " stroke="#000000" stroke-width="28" stroke-opacity="1" stroke-miterlimit="4"/><path stroke-linecap="round" transform="matrix(0.122946, 0, 0, 0.123515, 125.941314, 108.233138)" fill="none" stroke-linejoin="round" d="M 332.114598 353.396095 L 332.114598 233.850776 " stroke="#000000" stroke-width="28" stroke-opacity="1" stroke-miterlimit="4"/><path stroke-linecap="round" transform="matrix(0.122946, 0, 0, 0.123515, 125.941314, 108.233138)" fill="none" stroke-linejoin="round" d="M 285.409599 403.61778 C 285.409599 409.215537 244.518896 457.824308 244.518896 457.824308 L 280.453151 466.616266 L 241.437002 517.533716 " stroke="#000000" stroke-width="28" stroke-opacity="1" stroke-miterlimit="4"/><g fill="#2b491a" fill-opacity="1"><g transform="translate(140.396129, 290.238262)"><g><path d="M 5.09375 -3.25 L 6.4375 0 L 4.9375 0 L 3.75 -3 L 2.078125 -3 L 2.078125 0 L 0.671875 0 L 0.671875 -7.484375 L 3.890625 -7.484375 C 4.367188 -7.484375 4.785156 -7.40625 5.140625 -7.25 C 5.492188 -7.101562 5.769531 -6.863281 5.96875 -6.53125 C 6.164062 -6.207031 6.265625 -5.789062 6.265625 -5.28125 C 6.265625 -4.789062 6.160156 -4.367188 5.953125 -4.015625 C 5.742188 -3.671875 5.457031 -3.414062 5.09375 -3.25 Z M 3.703125 -6.21875 L 2.078125 -6.21875 L 2.078125 -4.234375 L 3.703125 -4.234375 C 4.078125 -4.234375 4.363281 -4.316406 4.5625 -4.484375 C 4.757812 -4.648438 4.859375 -4.898438 4.859375 -5.234375 C 4.859375 -5.546875 4.757812 -5.785156 4.5625 -5.953125 C 4.363281 -6.128906 4.078125 -6.21875 3.703125 -6.21875 Z M 3.703125 -6.21875 "/></g></g></g><g fill="#2b491a" fill-opacity="1"><g transform="translate(152.601675, 290.238262)"><g><path d="M 5.65625 0 L 0.671875 0 L 0.671875 -7.484375 L 5.65625 -7.484375 L 5.65625 -6.21875 L 2.078125 -6.21875 L 2.078125 -4.375 L 5.28125 -4.375 L 5.28125 -3.125 L 2.078125 -3.125 L 2.078125 -1.265625 L 5.65625 -1.265625 Z M 5.65625 0 "/></g></g></g><g fill="#2b491a" fill-opacity="1"><g transform="translate(164.140226, 290.238262)"><g><path d="M 4.015625 0.140625 C 3.390625 0.140625 2.847656 0.0351562 2.390625 -0.171875 C 1.941406 -0.378906 1.566406 -0.660156 1.265625 -1.015625 C 0.972656 -1.378906 0.75 -1.796875 0.59375 -2.265625 C 0.445312 -2.734375 0.375 -3.226562 0.375 -3.75 C 0.375 -4.269531 0.445312 -4.757812 0.59375 -5.21875 C 0.75 -5.6875 0.972656 -6.097656 1.265625 -6.453125 C 1.566406 -6.816406 1.941406 -7.101562 2.390625 -7.3125 C 2.847656 -7.519531 3.390625 -7.625 4.015625 -7.625 C 4.628906 -7.625 5.160156 -7.519531 5.609375 -7.3125 C 6.066406 -7.101562 6.425781 -6.8125 6.6875 -6.4375 C 6.957031 -6.0625 7.125 -5.628906 7.1875 -5.140625 L 5.65625 -5.140625 C 5.582031 -5.535156 5.394531 -5.835938 5.09375 -6.046875 C 4.789062 -6.253906 4.414062 -6.359375 3.96875 -6.359375 C 3.507812 -6.359375 3.125 -6.25 2.8125 -6.03125 C 2.5 -5.8125 2.257812 -5.503906 2.09375 -5.109375 C 1.9375 -4.722656 1.859375 -4.269531 1.859375 -3.75 C 1.859375 -3.226562 1.9375 -2.769531 2.09375 -2.375 C 2.257812 -1.976562 2.5 -1.671875 2.8125 -1.453125 C 3.125 -1.234375 3.507812 -1.125 3.96875 -1.125 C 4.414062 -1.125 4.789062 -1.234375 5.09375 -1.453125 C 5.394531 -1.671875 5.582031 -2 5.65625 -2.4375 L 7.1875 -2.4375 C 7.125 -1.914062 6.957031 -1.460938 6.6875 -1.078125 C 6.425781 -0.691406 6.066406 -0.390625 5.609375 -0.171875 C 5.160156 0.0351562 4.628906 0.140625 4.015625 0.140625 Z M 4.015625 0.140625 "/></g></g></g><g fill="#2b491a" fill-opacity="1"><g transform="translate(177.110844, 290.238262)"><g><path d="M 3.609375 0.140625 C 2.898438 0.140625 2.320312 0.0195312 1.875 -0.21875 C 1.425781 -0.457031 1.097656 -0.789062 0.890625 -1.21875 C 0.691406 -1.65625 0.59375 -2.15625 0.59375 -2.71875 L 0.59375 -7.484375 L 2.015625 -7.484375 L 2.015625 -2.71875 C 2.015625 -2.40625 2.0625 -2.128906 2.15625 -1.890625 C 2.257812 -1.648438 2.425781 -1.460938 2.65625 -1.328125 C 2.894531 -1.191406 3.210938 -1.125 3.609375 -1.125 C 4.015625 -1.125 4.332031 -1.191406 4.5625 -1.328125 C 4.800781 -1.460938 4.96875 -1.648438 5.0625 -1.890625 C 5.15625 -2.128906 5.203125 -2.40625 5.203125 -2.71875 L 5.203125 -7.484375 L 6.640625 -7.484375 L 6.640625 -2.71875 C 6.640625 -2.15625 6.535156 -1.65625 6.328125 -1.21875 C 6.117188 -0.789062 5.789062 -0.457031 5.34375 -0.21875 C 4.90625 0.0195312 4.328125 0.140625 3.609375 0.140625 Z M 3.609375 0.140625 "/></g></g></g><g fill="#2b491a" fill-opacity="1"><g transform="translate(189.787201, 290.238262)"><g><path d="M 5.09375 -3.25 L 6.4375 0 L 4.9375 0 L 3.75 -3 L 2.078125 -3 L 2.078125 0 L 0.671875 0 L 0.671875 -7.484375 L 3.890625 -7.484375 C 4.367188 -7.484375 4.785156 -7.40625 5.140625 -7.25 C 5.492188 -7.101562 5.769531 -6.863281 5.96875 -6.53125 C 6.164062 -6.207031 6.265625 -5.789062 6.265625 -5.28125 C 6.265625 -4.789062 6.160156 -4.367188 5.953125 -4.015625 C 5.742188 -3.671875 5.457031 -3.414062 5.09375 -3.25 Z M 3.703125 -6.21875 L 2.078125 -6.21875 L 2.078125 -4.234375 L 3.703125 -4.234375 C 4.078125 -4.234375 4.363281 -4.316406 4.5625 -4.484375 C 4.757812 -4.648438 4.859375 -4.898438 4.859375 -5.234375 C 4.859375 -5.546875 4.757812 -5.785156 4.5625 -5.953125 C 4.363281 -6.128906 4.078125 -6.21875 3.703125 -6.21875 Z M 3.703125 -6.21875 "/></g></g></g><g fill="#2b491a" fill-opacity="1"><g transform="translate(201.992747, 290.238262)"><g><path d="M 3.640625 0.140625 C 3.273438 0.140625 2.90625 0.09375 2.53125 0 C 2.164062 -0.0820312 1.828125 -0.222656 1.515625 -0.421875 C 1.203125 -0.617188 0.9375 -0.878906 0.71875 -1.203125 C 0.507812 -1.535156 0.382812 -1.945312 0.34375 -2.4375 L 1.8125 -2.4375 C 1.894531 -2.082031 2.03125 -1.804688 2.21875 -1.609375 C 2.40625 -1.410156 2.625 -1.269531 2.875 -1.1875 C 3.125 -1.101562 3.382812 -1.0625 3.65625 -1.0625 C 4.039062 -1.0625 4.363281 -1.144531 4.625 -1.3125 C 4.882812 -1.476562 5.015625 -1.738281 5.015625 -2.09375 C 5.015625 -2.363281 4.925781 -2.566406 4.75 -2.703125 C 4.582031 -2.847656 4.363281 -2.960938 4.09375 -3.046875 C 3.820312 -3.128906 3.523438 -3.203125 3.203125 -3.265625 C 2.898438 -3.335938 2.59375 -3.414062 2.28125 -3.5 C 1.976562 -3.582031 1.695312 -3.695312 1.4375 -3.84375 C 1.175781 -4 0.96875 -4.203125 0.8125 -4.453125 C 0.664062 -4.710938 0.59375 -5.035156 0.59375 -5.421875 C 0.59375 -5.910156 0.707031 -6.316406 0.9375 -6.640625 C 1.164062 -6.960938 1.476562 -7.207031 1.875 -7.375 C 2.28125 -7.539062 2.734375 -7.625 3.234375 -7.625 C 3.722656 -7.625 4.175781 -7.535156 4.59375 -7.359375 C 5.019531 -7.191406 5.378906 -6.9375 5.671875 -6.59375 C 5.972656 -6.25 6.160156 -5.804688 6.234375 -5.265625 L 4.796875 -5.265625 C 4.703125 -5.660156 4.507812 -5.953125 4.21875 -6.140625 C 3.925781 -6.328125 3.585938 -6.421875 3.203125 -6.421875 C 2.847656 -6.421875 2.554688 -6.34375 2.328125 -6.1875 C 2.097656 -6.039062 1.984375 -5.828125 1.984375 -5.546875 C 1.984375 -5.316406 2.0625 -5.132812 2.21875 -5 C 2.382812 -4.875 2.597656 -4.769531 2.859375 -4.6875 C 3.117188 -4.613281 3.398438 -4.539062 3.703125 -4.46875 C 4.023438 -4.40625 4.34375 -4.328125 4.65625 -4.234375 C 4.96875 -4.140625 5.257812 -4.007812 5.53125 -3.84375 C 5.8125 -3.6875 6.03125 -3.472656 6.1875 -3.203125 C 6.351562 -2.941406 6.4375 -2.597656 6.4375 -2.171875 C 6.4375 -1.460938 6.191406 -0.898438 5.703125 -0.484375 C 5.210938 -0.0664062 4.523438 0.140625 3.640625 0.140625 Z M 3.640625 0.140625 "/></g></g></g><g fill="#2b491a" fill-opacity="1"><g transform="translate(214.266947, 290.238262)"><g><path d="M 4.015625 0.140625 C 3.398438 0.140625 2.863281 0.0351562 2.40625 -0.171875 C 1.945312 -0.378906 1.566406 -0.660156 1.265625 -1.015625 C 0.972656 -1.378906 0.75 -1.796875 0.59375 -2.265625 C 0.445312 -2.734375 0.375 -3.226562 0.375 -3.75 C 0.375 -4.269531 0.445312 -4.757812 0.59375 -5.21875 C 0.75 -5.6875 0.972656 -6.097656 1.265625 -6.453125 C 1.566406 -6.816406 1.945312 -7.101562 2.40625 -7.3125 C 2.863281 -7.519531 3.398438 -7.625 4.015625 -7.625 C 4.640625 -7.625 5.175781 -7.519531 5.625 -7.3125 C 6.082031 -7.101562 6.460938 -6.816406 6.765625 -6.453125 C 7.066406 -6.097656 7.289062 -5.6875 7.4375 -5.21875 C 7.582031 -4.757812 7.65625 -4.269531 7.65625 -3.75 C 7.65625 -3.226562 7.582031 -2.734375 7.4375 -2.265625 C 7.289062 -1.796875 7.066406 -1.378906 6.765625 -1.015625 C 6.460938 -0.660156 6.082031 -0.378906 5.625 -0.171875 C 5.175781 0.0351562 4.640625 0.140625 4.015625 0.140625 Z M 4.015625 -1.125 C 4.472656 -1.125 4.863281 -1.234375 5.1875 -1.453125 C 5.507812 -1.671875 5.753906 -1.976562 5.921875 -2.375 C 6.097656 -2.769531 6.1875 -3.226562 6.1875 -3.75 C 6.1875 -4.269531 6.097656 -4.722656 5.921875 -5.109375 C 5.753906 -5.492188 5.507812 -5.796875 5.1875 -6.015625 C 4.863281 -6.234375 4.472656 -6.34375 4.015625 -6.34375 C 3.566406 -6.34375 3.175781 -6.234375 2.84375 -6.015625 C 2.519531 -5.796875 2.273438 -5.492188 2.109375 -5.109375 C 1.941406 -4.722656 1.859375 -4.269531 1.859375 -3.75 C 1.859375 -3.226562 1.941406 -2.769531 2.109375 -2.375 C 2.273438 -1.976562 2.519531 -1.671875 2.84375 -1.453125 C 3.175781 -1.234375 3.566406 -1.125 4.015625 -1.125 Z M 4.015625 -1.125 "/></g></g></g><g fill="#2b491a" fill-opacity="1"><g transform="translate(227.757425, 290.238262)"><g><path d="M 3.640625 0.140625 C 3.273438 0.140625 2.90625 0.09375 2.53125 0 C 2.164062 -0.0820312 1.828125 -0.222656 1.515625 -0.421875 C 1.203125 -0.617188 0.9375 -0.878906 0.71875 -1.203125 C 0.507812 -1.535156 0.382812 -1.945312 0.34375 -2.4375 L 1.8125 -2.4375 C 1.894531 -2.082031 2.03125 -1.804688 2.21875 -1.609375 C 2.40625 -1.410156 2.625 -1.269531 2.875 -1.1875 C 3.125 -1.101562 3.382812 -1.0625 3.65625 -1.0625 C 4.039062 -1.0625 4.363281 -1.144531 4.625 -1.3125 C 4.882812 -1.476562 5.015625 -1.738281 5.015625 -2.09375 C 5.015625 -2.363281 4.925781 -2.566406 4.75 -2.703125 C 4.582031 -2.847656 4.363281 -2.960938 4.09375 -3.046875 C 3.820312 -3.128906 3.523438 -3.203125 3.203125 -3.265625 C 2.898438 -3.335938 2.59375 -3.414062 2.28125 -3.5 C 1.976562 -3.582031 1.695312 -3.695312 1.4375 -3.84375 C 1.175781 -4 0.96875 -4.203125 0.8125 -4.453125 C 0.664062 -4.710938 0.59375 -5.035156 0.59375 -5.421875 C 0.59375 -5.910156 0.707031 -6.316406 0.9375 -6.640625 C 1.164062 -6.960938 1.476562 -7.207031 1.875 -7.375 C 2.28125 -7.539062 2.734375 -7.625 3.234375 -7.625 C 3.722656 -7.625 4.175781 -7.535156 4.59375 -7.359375 C 5.019531 -7.191406 5.378906 -6.9375 5.671875 -6.59375 C 5.972656 -6.25 6.160156 -5.804688 6.234375 -5.265625 L 4.796875 -5.265625 C 4.703125 -5.660156 4.507812 -5.953125 4.21875 -6.140625 C 3.925781 -6.328125 3.585938 -6.421875 3.203125 -6.421875 C 2.847656 -6.421875 2.554688 -6.34375 2.328125 -6.1875 C 2.097656 -6.039062 1.984375 -5.828125 1.984375 -5.546875 C 1.984375 -5.316406 2.0625 -5.132812 2.21875 -5 C 2.382812 -4.875 2.597656 -4.769531 2.859375 -4.6875 C 3.117188 -4.613281 3.398438 -4.539062 3.703125 -4.46875 C 4.023438 -4.40625 4.34375 -4.328125 4.65625 -4.234375 C 4.96875 -4.140625 5.257812 -4.007812 5.53125 -3.84375 C 5.8125 -3.6875 6.03125 -3.472656 6.1875 -3.203125 C 6.351562 -2.941406 6.4375 -2.597656 6.4375 -2.171875 C 6.4375 -1.460938 6.191406 -0.898438 5.703125 -0.484375 C 5.210938 -0.0664062 4.523438 0.140625 3.640625 0.140625 Z M 3.640625 0.140625 "/></g></g></g><g fill="#2b491a" fill-opacity="1"><g transform="translate(130.622692, 303.738261)"><g><path d="M 5.09375 -3.25 L 6.4375 0 L 4.9375 0 L 3.75 -3 L 2.078125 -3 L 2.078125 0 L 0.671875 0 L 0.671875 -7.484375 L 3.890625 -7.484375 C 4.367188 -7.484375 4.785156 -7.40625 5.140625 -7.25 C 5.492188 -7.101562 5.769531 -6.863281 5.96875 -6.53125 C 6.164062 -6.207031 6.265625 -5.789062 6.265625 -5.28125 C 6.265625 -4.789062 6.160156 -4.367188 5.953125 -4.015625 C 5.742188 -3.671875 5.457031 -3.414062 5.09375 -3.25 Z M 3.703125 -6.21875 L 2.078125 -6.21875 L 2.078125 -4.234375 L 3.703125 -4.234375 C 4.078125 -4.234375 4.363281 -4.316406 4.5625 -4.484375 C 4.757812 -4.648438 4.859375 -4.898438 4.859375 -5.234375 C 4.859375 -5.546875 4.757812 -5.785156 4.5625 -5.953125 C 4.363281 -6.128906 4.078125 -6.21875 3.703125 -6.21875 Z M 3.703125 -6.21875 "/></g></g></g><g fill="#2b491a" fill-opacity="1"><g transform="translate(142.828238, 303.738261)"><g><path d="M 5.65625 0 L 0.671875 0 L 0.671875 -7.484375 L 5.65625 -7.484375 L 5.65625 -6.21875 L 2.078125 -6.21875 L 2.078125 -4.375 L 5.28125 -4.375 L 5.28125 -3.125 L 2.078125 -3.125 L 2.078125 -1.265625 L 5.65625 -1.265625 Z M 5.65625 0 "/></g></g></g><g fill="#2b491a" fill-opacity="1"><g transform="translate(154.366789, 303.738261)"><g><path d="M 2.078125 0 L 0.671875 0 L 0.671875 -7.484375 L 2.25 -7.484375 L 5.328125 -2.125 L 5.328125 -7.484375 L 6.734375 -7.484375 L 6.734375 0 L 5.140625 0 L 2.078125 -5.375 Z M 2.078125 0 "/></g></g></g><g fill="#2b491a" fill-opacity="1"><g transform="translate(167.219705, 303.738261)"><g><path d="M 4.015625 0.140625 C 3.398438 0.140625 2.863281 0.0351562 2.40625 -0.171875 C 1.945312 -0.378906 1.566406 -0.660156 1.265625 -1.015625 C 0.972656 -1.378906 0.75 -1.796875 0.59375 -2.265625 C 0.445312 -2.734375 0.375 -3.226562 0.375 -3.75 C 0.375 -4.269531 0.445312 -4.757812 0.59375 -5.21875 C 0.75 -5.6875 0.972656 -6.097656 1.265625 -6.453125 C 1.566406 -6.816406 1.945312 -7.101562 2.40625 -7.3125 C 2.863281 -7.519531 3.398438 -7.625 4.015625 -7.625 C 4.640625 -7.625 5.175781 -7.519531 5.625 -7.3125 C 6.082031 -7.101562 6.460938 -6.816406 6.765625 -6.453125 C 7.066406 -6.097656 7.289062 -5.6875 7.4375 -5.21875 C 7.582031 -4.757812 7.65625 -4.269531 7.65625 -3.75 C 7.65625 -3.226562 7.582031 -2.734375 7.4375 -2.265625 C 7.289062 -1.796875 7.066406 -1.378906 6.765625 -1.015625 C 6.460938 -0.660156 6.082031 -0.378906 5.625 -0.171875 C 5.175781 0.0351562 4.640625 0.140625 4.015625 0.140625 Z M 4.015625 -1.125 C 4.472656 -1.125 4.863281 -1.234375 5.1875 -1.453125 C 5.507812 -1.671875 5.753906 -1.976562 5.921875 -2.375 C 6.097656 -2.769531 6.1875 -3.226562 6.1875 -3.75 C 6.1875 -4.269531 6.097656 -4.722656 5.921875 -5.109375 C 5.753906 -5.492188 5.507812 -5.796875 5.1875 -6.015625 C 4.863281 -6.234375 4.472656 -6.34375 4.015625 -6.34375 C 3.566406 -6.34375 3.175781 -6.234375 2.84375 -6.015625 C 2.519531 -5.796875 2.273438 -5.492188 2.109375 -5.109375 C 1.941406 -4.722656 1.859375 -4.269531 1.859375 -3.75 C 1.859375 -3.226562 1.941406 -2.769531 2.109375 -2.375 C 2.273438 -1.976562 2.519531 -1.671875 2.84375 -1.453125 C 3.175781 -1.234375 3.566406 -1.125 4.015625 -1.125 Z M 4.015625 -1.125 "/></g></g></g><g fill="#2b491a" fill-opacity="1"><g transform="translate(180.710182, 303.738261)"><g><path d="M 4.21875 0 L 2.671875 0 L 0.03125 -7.484375 L 1.515625 -7.484375 L 3.4375 -1.546875 L 5.375 -7.484375 L 6.859375 -7.484375 Z M 4.21875 0 "/></g></g></g><g fill="#2b491a" fill-opacity="1"><g transform="translate(193.043239, 303.738261)"><g><path d="M 3.921875 -8.015625 L 2.890625 -8.015625 L 4.015625 -9.46875 L 5.390625 -9.46875 Z M 1.546875 0 L 0.0625 0 L 2.703125 -7.484375 L 4.265625 -7.484375 L 6.890625 0 L 5.421875 0 L 4.90625 -1.546875 L 2.046875 -1.546875 Z M 3.484375 -5.953125 L 2.453125 -2.78125 L 4.515625 -2.78125 Z M 3.484375 -5.953125 "/></g></g></g><g fill="#2b491a" fill-opacity="1"><g transform="translate(205.454768, 303.738261)"><g><path d="M 4.21875 0 L 2.671875 0 L 0.03125 -7.484375 L 1.515625 -7.484375 L 3.4375 -1.546875 L 5.375 -7.484375 L 6.859375 -7.484375 Z M 4.21875 0 "/></g></g></g><g fill="#2b491a" fill-opacity="1"><g transform="translate(217.787824, 303.738261)"><g><path d="M 5.65625 0 L 0.671875 0 L 0.671875 -7.484375 L 5.65625 -7.484375 L 5.65625 -6.21875 L 2.078125 -6.21875 L 2.078125 -4.375 L 5.28125 -4.375 L 5.28125 -3.125 L 2.078125 -3.125 L 2.078125 -1.265625 L 5.65625 -1.265625 Z M 5.65625 0 "/></g></g></g><g fill="#2b491a" fill-opacity="1"><g transform="translate(229.326375, 303.738261)"><g><path d="M 2.078125 0 L 0.671875 0 L 0.671875 -7.484375 L 2.078125 -7.484375 Z M 2.078125 0 "/></g></g></g><g fill="#2b491a" fill-opacity="1"><g transform="translate(237.520172, 303.738261)"><g><path d="M 3.640625 0.140625 C 3.273438 0.140625 2.90625 0.09375 2.53125 0 C 2.164062 -0.0820312 1.828125 -0.222656 1.515625 -0.421875 C 1.203125 -0.617188 0.9375 -0.878906 0.71875 -1.203125 C 0.507812 -1.535156 0.382812 -1.945312 0.34375 -2.4375 L 1.8125 -2.4375 C 1.894531 -2.082031 2.03125 -1.804688 2.21875 -1.609375 C 2.40625 -1.410156 2.625 -1.269531 2.875 -1.1875 C 3.125 -1.101562 3.382812 -1.0625 3.65625 -1.0625 C 4.039062 -1.0625 4.363281 -1.144531 4.625 -1.3125 C 4.882812 -1.476562 5.015625 -1.738281 5.015625 -2.09375 C 5.015625 -2.363281 4.925781 -2.566406 4.75 -2.703125 C 4.582031 -2.847656 4.363281 -2.960938 4.09375 -3.046875 C 3.820312 -3.128906 3.523438 -3.203125 3.203125 -3.265625 C 2.898438 -3.335938 2.59375 -3.414062 2.28125 -3.5 C 1.976562 -3.582031 1.695312 -3.695312 1.4375 -3.84375 C 1.175781 -4 0.96875 -4.203125 0.8125 -4.453125 C 0.664062 -4.710938 0.59375 -5.035156 0.59375 -5.421875 C 0.59375 -5.910156 0.707031 -6.316406 0.9375 -6.640625 C 1.164062 -6.960938 1.476562 -7.207031 1.875 -7.375 C 2.28125 -7.539062 2.734375 -7.625 3.234375 -7.625 C 3.722656 -7.625 4.175781 -7.535156 4.59375 -7.359375 C 5.019531 -7.191406 5.378906 -6.9375 5.671875 -6.59375 C 5.972656 -6.25 6.160156 -5.804688 6.234375 -5.265625 L 4.796875 -5.265625 C 4.703125 -5.660156 4.507812 -5.953125 4.21875 -6.140625 C 3.925781 -6.328125 3.585938 -6.421875 3.203125 -6.421875 C 2.847656 -6.421875 2.554688 -6.34375 2.328125 -6.1875 C 2.097656 -6.039062 1.984375 -5.828125 1.984375 -5.546875 C 1.984375 -5.316406 2.0625 -5.132812 2.21875 -5 C 2.382812 -4.875 2.597656 -4.769531 2.859375 -4.6875 C 3.117188 -4.613281 3.398438 -4.539062 3.703125 -4.46875 C 4.023438 -4.40625 4.34375 -4.328125 4.65625 -4.234375 C 4.96875 -4.140625 5.257812 -4.007812 5.53125 -3.84375 C 5.8125 -3.6875 6.03125 -3.472656 6.1875 -3.203125 C 6.351562 -2.941406 6.4375 -2.597656 6.4375 -2.171875 C 6.4375 -1.460938 6.191406 -0.898438 5.703125 -0.484375 C 5.210938 -0.0664062 4.523438 0.140625 3.640625 0.140625 Z M 3.640625 0.140625 "/></g></g></g></svg>